<?xml version="1.0" standalone="no"?>
<!DOCTYPE svg PUBLIC "-//W3C//DTD SVG 20010904//EN"
 "http://www.w3.org/TR/2001/REC-SVG-20010904/DTD/svg10.dtd">
<svg version="1.0" xmlns="http://www.w3.org/2000/svg"
 width="594.000000pt" height="420.000000pt" viewBox="0 0 594.000000 420.000000"
 preserveAspectRatio="xMidYMid meet">

<g transform="translate(0.000000,420.000000) scale(0.100000,-0.100000)"
fill="#000000" stroke="none">
<path d="M2902 3649 c-272 -35 -532 -198 -718 -451 -101 -138 -109 -268 -24
-411 28 -47 39 -40 17 10 -8 21 -18 57 -20 80 -5 39 -4 41 17 34 17 -7 22 -19
27 -65 6 -56 63 -186 80 -186 12 0 12 1 -11 53 -11 25 -17 52 -14 61 3 9 1 23
-6 31 -8 10 -9 15 -2 15 21 0 67 -25 80 -42 13 -18 48 -26 37 -8 -8 12 69 -15
98 -35 12 -8 30 -15 41 -15 29 0 130 -50 120 -60 -5 -5 -36 -16 -68 -24 -32
-9 -70 -23 -83 -31 -27 -18 -116 -135 -109 -143 3 -2 31 19 63 48 105 96 154
112 192 64 28 -35 27 -40 -8 -47 -16 -4 -44 -21 -63 -40 -39 -39 -93 -115 -86
-122 2 -3 35 22 72 55 37 33 80 67 96 75 28 14 29 14 49 -18 30 -48 201 -214
272 -264 83 -57 134 -75 324 -112 88 -18 173 -39 189 -49 34 -20 130 -175 241
-393 l76 -149 30 22 c20 15 29 29 25 41 -4 15 -2 16 11 5 14 -11 15 -10 8 12
-11 36 -97 202 -102 197 -2 -3 3 -22 11 -42 28 -66 17 -52 -47 60 -78 138
-131 218 -164 247 -29 26 -57 54 -95 96 -18 20 -46 34 -85 44 l-58 15 30 13
c17 7 38 12 48 12 9 0 17 7 17 16 0 9 11 -2 23 -24 50 -94 102 -133 56 -42
l-22 43 23 -20 c30 -26 131 -179 187 -282 25 -46 49 -85 54 -88 11 -7 -16 58
-49 115 -14 25 -34 61 -45 80 l-19 35 21 -25 c31 -37 136 -208 161 -262 12
-27 26 -48 32 -48 33 0 -260 472 -328 528 l-36 30 75 25 75 25 30 -32 c17 -17
50 -71 75 -121 25 -49 71 -127 103 -172 73 -101 186 -241 197 -242 18 -2 4 35
-32 78 -47 56 -131 182 -159 236 -53 105 -50 161 11 233 l31 37 -37 -35 c-21
-19 -43 -51 -49 -72 -6 -21 -14 -38 -18 -38 -3 0 -24 18 -45 40 l-39 40 14 43
c15 42 15 42 120 78 102 34 106 37 128 79 42 83 26 224 -39 335 -58 102 -270
316 -393 398 -35 23 -39 30 -42 79 -7 90 -22 118 -113 209 -95 95 -145 121
-269 139 -76 11 -101 11 -190 -1z m388 -779 c-54 -73 -84 -98 -95 -80 -3 5 -2
10 4 10 6 0 38 34 73 75 34 41 64 72 66 70 3 -2 -19 -36 -48 -75z m253 -57
c33 -32 57 -74 57 -101 0 -10 -13 -46 -30 -79 -25 -50 -36 -61 -66 -71 -62
-19 -148 29 -201 112 -24 38 -25 39 -8 82 13 35 26 49 58 66 84 43 137 40 190
-9z m147 -460 c0 -5 -3 -18 -6 -31 -6 -22 -8 -22 -25 -6 -24 21 -24 31 -1 37
28 7 32 7 32 0z m122 -248 c21 -43 48 -95 59 -115 l21 -35 -31 34 c-36 40
-125 183 -141 226 l-11 30 31 -30 c18 -16 50 -66 72 -110z m-487 59 c47 -13
122 -51 114 -58 -5 -4 -225 30 -256 40 -32 9 -29 19 10 31 34 11 53 9 132 -13z"/>
<path d="M2149 2663 c-19 -21 -56 -67 -84 -103 -52 -69 -178 -216 -269 -315
-72 -78 -71 -92 2 -25 88 81 136 135 227 255 47 61 103 134 126 163 49 61 47
80 -2 25z"/>
<path d="M2215 2530 c-30 -38 -79 -100 -109 -137 -60 -77 -265 -306 -277 -311
-5 -2 -24 8 -42 22 -75 58 -52 12 41 -80 127 -126 190 -165 266 -163 l31 0
-40 18 c-22 10 -62 32 -89 50 l-50 31 34 0 c18 0 42 -7 52 -17 10 -9 18 -11
18 -6 0 6 -37 29 -82 52 -46 23 -94 50 -108 61 l-25 19 86 80 c50 46 139 148
212 243 69 90 132 170 141 177 9 8 16 17 16 22 0 23 -24 3 -75 -61z"/>
<path d="M1930 2045 c7 -8 17 -15 22 -15 6 0 5 7 -2 15 -7 8 -17 15 -22 15 -6
0 -5 -7 2 -15z"/>
<path d="M3850 1675 c0 -20 31 -75 40 -70 6 4 5 16 -5 35 -14 27 -35 48 -35
35z"/>
<path d="M2290 1076 c0 -99 1 -106 20 -106 17 0 20 7 20 40 l0 40 60 0 c47 0
64 4 80 20 25 25 25 51 1 81 -17 21 -30 24 -100 27 l-81 4 0 -106z m148 62
c34 -34 1 -68 -67 -68 l-41 0 0 40 0 40 48 0 c26 0 53 -5 60 -12z"/>
<path d="M2510 1165 c0 -8 9 -15 20 -15 11 0 20 7 20 15 0 8 -9 15 -20 15 -11
0 -20 -7 -20 -15z"/>
<path d="M2980 1076 c0 -86 3 -106 14 -106 10 0 16 13 18 38 l3 37 67 5 c37 3
71 10 77 15 21 22 22 61 3 86 -18 21 -30 24 -101 27 l-81 4 0 -106z m148 62
c35 -35 -3 -71 -71 -66 -35 3 -43 7 -45 26 -6 42 4 52 56 52 26 0 53 -5 60
-12z"/>
<path d="M2510 1045 c0 -60 3 -75 15 -75 12 0 15 15 15 75 0 60 -3 75 -15 75
-12 0 -15 -15 -15 -75z"/>
<path d="M2570 1045 c0 -68 2 -75 20 -75 18 0 20 7 20 55 0 49 3 57 25 67 19
8 31 8 50 0 22 -10 25 -18 25 -67 0 -42 3 -55 15 -55 22 0 21 112 -1 134 -20
20 -73 20 -102 0 -20 -14 -22 -14 -22 0 0 9 -7 16 -15 16 -12 0 -15 -15 -15
-75z"/>
<path d="M2789 1101 c-32 -26 -31 -87 3 -113 26 -20 69 -23 99 -8 28 15 25
-14 -3 -34 -27 -19 -58 -20 -93 -4 -31 14 -47 1 -21 -18 11 -8 43 -14 73 -14
44 0 59 5 78 25 22 22 25 32 25 105 0 64 -3 80 -15 80 -8 0 -15 -7 -15 -17 0
-15 -1 -15 -18 0 -25 23 -84 21 -113 -2z m111 -21 c22 -22 24 -33 10 -60 -23
-44 -110 -26 -110 23 1 53 61 76 100 37z"/>
<path d="M3213 1094 c-20 -20 -24 -31 -19 -57 8 -44 39 -67 91 -67 84 0 127
76 72 128 -35 33 -109 31 -144 -4z m115 -10 c44 -30 14 -94 -45 -94 -26 0 -63
32 -63 55 0 23 37 55 63 55 12 0 33 -7 45 -16z"/>
<path d="M3410 1045 c0 -60 3 -75 15 -75 11 0 15 12 15 49 0 55 17 81 54 81
34 0 46 -19 46 -77 0 -40 4 -53 15 -53 12 0 15 14 15 65 0 53 -3 66 -19 75
-25 13 -67 13 -91 0 -13 -7 -21 -7 -25 0 -16 26 -25 3 -25 -65z"/>
<path d="M3622 1104 c-31 -21 -31 -83 1 -112 27 -26 73 -29 105 -6 19 13 22
13 22 0 0 -40 -64 -66 -117 -47 -40 15 -57 6 -29 -15 11 -8 43 -14 73 -14 44
0 59 5 78 25 22 22 25 32 25 105 0 64 -3 80 -15 80 -8 0 -15 -7 -15 -17 0 -15
-1 -15 -18 0 -23 21 -81 22 -110 1z m108 -24 c23 -23 25 -39 6 -65 -15 -21
-67 -25 -90 -5 -17 13 -21 47 -8 66 18 28 66 30 92 4z"/>
</g>
</svg>
